<svg xmlns="http://www.w3.org/2000/svg" width="1200" height="240" viewBox="0 0 1200 240" fill="none">
  <defs>
    <linearGradient id="waBg" x1="48" y1="32" x2="1152" y2="208" gradientUnits="userSpaceOnUse">
      <stop stop-color="#1A493D"/>
      <stop offset="1" stop-color="#214F43"/>
    </linearGradient>
  </defs>

  <rect width="1200" height="240" rx="48" fill="url(#waBg)"/>
  <rect x="1" y="1" width="1198" height="238" rx="47" stroke="#2F6356" stroke-opacity="0.7"/>

  <g opacity="0.14">
    <circle cx="1062" cy="72" r="34" stroke="#F0F7F3" stroke-width="2"/>
    <circle cx="1110" cy="116" r="34" stroke="#F0F7F3" stroke-width="2"/>
    <circle cx="1058" cy="160" r="34" stroke="#F0F7F3" stroke-width="2"/>
    <path d="M1033 88L1086 116L1033 144M1086 116L1139 144M1086 116L1086 160" stroke="#F0F7F3" stroke-width="2"/>
  </g>

  <rect x="54" y="54" width="132" height="132" rx="34" fill="#EAF4EF" fill-opacity="0.12"/>
  <circle cx="120" cy="120" r="42" fill="#FFFFFF"/>
  <path d="M120.086 93.5C105.671 93.5 94 104.999 94 119.173C94 124.605 95.711 129.649 98.631 133.814L95.586 144.135L106.279 141.225C110.293 143.891 115.147 145.457 120.138 145.457C134.553 145.457 146.224 133.958 146.224 119.784C146.224 105.61 134.501 93.5 120.086 93.5ZM134.783 129.586C134.175 131.335 131.264 132.782 129.116 133.216C127.665 133.505 125.841 133.746 119.797 131.286C112.075 128.095 107.101 120.337 106.721 119.854C106.392 119.42 103.568 115.846 103.568 112.126C103.568 108.406 105.485 106.591 106.258 105.77C106.866 105.095 107.868 104.806 108.821 104.806C109.13 104.806 109.408 104.806 109.656 104.854C110.464 104.903 110.87 105 111.399 106.253C112.007 107.699 113.49 111.419 113.655 111.774C113.821 112.16 113.986 112.691 113.708 113.173C113.442 113.656 113.211 113.898 112.768 114.429C112.324 114.911 111.907 115.297 111.464 115.829C111.064 116.285 110.609 116.788 111.164 117.752C111.72 118.668 113.643 121.784 116.461 124.216C120.099 127.343 123.057 128.349 124.26 128.832C125.166 129.218 126.244 129.169 126.912 128.397C127.756 127.391 128.798 125.655 129.871 123.95C130.633 122.739 131.591 122.594 132.708 123.029C133.866 123.463 140.004 126.447 141.24 127.054C142.476 127.675 143.299 127.964 143.664 128.59C144.029 129.218 144.029 132.059 143.421 133.809C142.814 135.558 140.51 137.181 138.231 137.759C136.015 138.323 133.202 138.593 120.086 133.636C115.017 131.719 110.295 128.813 106.371 124.9C102.446 120.987 100.392 117.175 100.392 112.348C100.392 107.52 102.859 103.432 103.74 102.392C104.601 101.365 106.321 100.495 108.267 100.495C108.923 100.495 109.522 100.525 110.024 100.587C111.585 100.796 112.344 101.394 112.949 102.886C113.685 104.729 115.591 109.759 115.879 110.401C116.167 111.044 116.454 111.894 115.868 112.862C115.281 113.829 114.956 114.278 114.261 115.103C113.566 115.928 112.863 116.616 112.168 117.372C111.473 118.127 110.781 118.961 111.662 120.384C112.542 121.807 115.591 126.667 120.436 130.005C126.61 134.238 131.841 135.562 134.728 135.659C137.596 135.756 139.657 134.848 140.877 133.137C142.102 131.427 142.102 129.087 141.591 128.215C141.081 127.343 139.714 126.919 138.552 126.34L134.783 129.586Z" fill="#2F7A67"/>
  <path d="M222 68V172" stroke="#D6E5DC" stroke-width="3" stroke-linecap="round" opacity="0.9"/>

  <text x="266" y="92" fill="#D2E0DA" font-family="Arial, sans-serif" font-size="22" font-weight="700" letter-spacing="0.14em">WHATSAPP</text>
  <text x="266" y="154" fill="#FFFFFF" font-family="Arial, sans-serif" font-size="52" font-weight="700">+62 857-5502-6126</text>
</svg>
